<?xml version="1.0" encoding="utf-8"?>
<!-- Generator: Adobe Illustrator 20.1.0, SVG Export Plug-In . SVG Version: 6.00 Build 0)  -->
<svg version="1.1" id="Layer_1" xmlns="http://www.w3.org/2000/svg" xmlns:xlink="http://www.w3.org/1999/xlink" x="0px" y="0px"
	 viewBox="0 0 400 400" style="enable-background:new 0 0 400 400;" xml:space="preserve">
<g>
	<path d="M90,0C63.5,0,42,35.8,42,80c0,34.8,13.4,64.4,32,75.4V384c0,8.8,7.2,16,16,16s16-7.2,16-16V155.4c18.6-11,32-40.5,32-75.4
		C138,35.8,116.5,0,90,0z"/>
	<path d="M236,0c-3.3,0-6,2.7-6,6v88c0,3.3-1.8,6-4,6s-4-2.7-4-6V6c0-3.3-2.7-6-6-6s-6,2.7-6,6v88c0,3.3-1.8,6-4,6s-4-2.7-4-6V6
		c0-3.3-2.7-6-6-6s-6,2.7-6,6v88c0,3.3-1.8,6-4,6s-4-2.7-4-6V6c0-3.3-2.7-6-6-6s-6,2.7-6,6c0,0,0,67.7,0,86c0,33.8,5.6,55.6,20,64
		v228c0,8.8,7.2,16,16,16s16-7.2,16-16V156c14.4-8.4,20-30.3,20-64c0-25.7,0-86,0-86C242,2.7,239.3,0,236,0z"/>
	<path d="M322,0c-26.5,0-48,43-48,96c0,41.8,13.4,77.3,32,90.5V384c0,8.8,7.2,16,16,16s16-7.2,16-16V16C338,7.2,330.8,0,322,0z"/>
</g>
</svg>
