<?xml version="1.0" encoding="utf-8"?>
<!-- Generator: Adobe Illustrator 20.1.0, SVG Export Plug-In . SVG Version: 6.00 Build 0)  -->
<svg version="1.1" id="Layer_1" xmlns="http://www.w3.org/2000/svg" xmlns:xlink="http://www.w3.org/1999/xlink" x="0px" y="0px"
	 viewBox="0 0 400 400" style="enable-background:new 0 0 400 400;" xml:space="preserve">
<g>
	<path d="M306.9,133.5c-3.2-7.1-6-13.8-8.8-20.3c-33.6-6.8-53.4-29.9-70.2-58c7.2,1.5,13.6,3,20,4c15.3,2.5,30.7,4.1,46-0.3
		c9.5-2.7,16.4-8.2,19.7-18c2.1-6.3,5-12.5,8.4-18.2C330,9.3,341.6,4.5,356.7,7.7c7.3,1.5,16.6,6.5,22.4,12
		c-3.4,1.2-6.9,2.2-10.2,3.5c-7.6,3-11.4,8.4-11.5,16.8c-0.2,10.9-0.1,21.9-1.6,32.7c-3,21.6-9.3,29.3-29.9,38.8
		c3.1,7.3,9.4,21.9,9.4,21.9s43.2,0,64.7,0c0,18.5,0,36.5,0,54.7c-42.4,0-128.5,0-128.5,0v-10.9H225c0,0,0,0.2,0,1.5
		c0,38.7,0,77.4,0,116.2c0,13.3-7.9,22.9-20.7,24.4c-3.9,0.5-8.3-0.5-12-2c-35.7-14.1-71.2-28.4-106.8-42.7
		c-4.5-1.8-6.8-1.5-7.9,1.2c-1.1,2.9,0.3,4.8,5,6.6c13.8,5.5,27.6,11,41.8,16.7c8.3,31.1,16.7,62.4,25.2,94.1
		c-47.9,0-95.3,0-143.4,0c-1.5-9.3-3.2-18.6-4.4-28c-2.1-17.1-2.3-34.4-0.7-51.6c2.4-25.8,8-50.5,23.5-71.7
		c8.1-11.2,18-20.1,32.1-22.3c9.1-1.5,18-0.6,26.6,2.9c30.5,12.3,61,24.6,91.5,36.8c1.1,0.4,2.2,0.9,3.7,1.4c0-28.9,0-57.4,0-86.2
		c-5.6,0-10.4,0-16.4,0c0-9.2,0-18.1,0-27.3c36.4,0,72.7,0,109.4,0c0-4.6,0-13.7,0-13.7H306.9z M307.2,113.7
		c3,6.9,5.7,13.5,8.4,19.7c3.8,0,7.1,0,10.7,0c-3-7.1-5.9-13.9-8.7-20.4C314,113.3,310.9,113.5,307.2,113.7z M350.5,23.2
		c-0.1-2.8-2.6-5.2-5.4-5.2c-2.9,0-5.5,2.7-5.4,5.5c0.1,2.9,2.9,5.4,5.7,5.2C348.2,28.5,350.6,25.9,350.5,23.2z"/>
	<path d="M97.6,212.7c-27.5,0-49.7-22.2-49.7-49.7c0-27.7,22.4-49.9,50.4-49.8c27.1,0.1,49.3,22.6,49.3,49.9
		C147.5,190.6,125.2,212.7,97.6,212.7z"/>
</g>
</svg>
