<?xml version="1.0" encoding="utf-8"?>
<!-- Generator: Adobe Illustrator 20.1.0, SVG Export Plug-In . SVG Version: 6.00 Build 0)  -->
<svg version="1.1" id="Layer_1" xmlns="http://www.w3.org/2000/svg" xmlns:xlink="http://www.w3.org/1999/xlink" x="0px" y="0px"
	 viewBox="0 0 400 400" style="enable-background:new 0 0 400 400;" xml:space="preserve">
<style type="text/css">
	.st0{clip-path:url(#SVGID_2_);}
</style>
<g>
	<defs>
		<rect id="SVGID_1_" width="400" height="400"/>
	</defs>
	<clipPath id="SVGID_2_">
		<use xlink:href="#SVGID_1_"  style="overflow:visible;"/>
	</clipPath>
	<path class="st0" d="M144.9,68.1c1.2-4.8-1.8-9.7-6.6-10.9L112,50.9c-4.8-1.2-9.7,1.8-10.9,6.6l-22,91.1c-1.2,4.8,1.8,9.7,6.6,10.8
		l26.2,6.3c4.8,1.2,9.7-1.8,10.9-6.6L144.9,68.1z"/>
	<path class="st0" d="M193.3,62.9c17.4,0,31.5-14.1,31.5-31.5c0-17.4-14.1-31.5-31.5-31.5c-17.4,0-31.5,14.1-31.5,31.5
		C161.8,48.8,175.9,62.9,193.3,62.9"/>
	<path class="st0" d="M253.9,392.2c0,0.2,0,0.3,0,0.5c0,4,3.2,7.2,7.2,7.2c3.7,0,6.7-2.8,7.1-6.3L321,107.4c0-0.2,0-0.3,0-0.5
		c0-4-3.2-7.2-7.2-7.2c-3.7,0-6.5,2.8-7.1,6.3L253.9,392.2z"/>
	<path class="st0" d="M85.6,373.5c-0.3,1.4-0.4,2.9-0.4,4.5c0,12.2,9.9,22.1,22.1,22.1c10,0,18.5-6.7,21.2-15.8l38-157.2l36.2,156.3
		c2.4,9.6,11.1,16.7,21.4,16.7c12.2,0,22.1-9.9,22.1-22.1c0-1.7-0.2-3.3-0.5-4.9L196,165.3l4.2-18.3l3.2,14.4
		c3,9.4,11.6,10.3,11.6,10.3l51.2,13.1c1,0.2,2,0.3,3.1,0.3c8.4,0,15.1-6.8,15.1-15.1c0-7.2-5-13.1-11.6-14.7l-44.3-11.1l-12.2-49.4
		c-5.8-27.6-32.1-27-32.1-27C158.4,67.1,152,94.1,152,94.1L85.6,373.5z"/>
</g>
</svg>
